<svg width="21" height="18" viewBox="0 0 21 18" fill="none" xmlns="http://www.w3.org/2000/svg">
<path d="M2.71409 0.294092C2.62085 0.200853 2.51016 0.126892 2.38834 0.076432C2.26652 0.0259717 2.13595 0 2.00409 0C1.87223 0 1.74166 0.0259717 1.61984 0.076432C1.49802 0.126892 1.38733 0.200853 1.29409 0.294092C1.10579 0.482395 1 0.73779 1 1.00409C1 1.27039 1.10579 1.52579 1.29409 1.71409L6.92409 7.34409C6.5679 8.00671 6.43468 8.76646 6.54418 9.51074C6.65368 10.255 7.00008 10.9442 7.53203 11.4762C8.06398 12.0081 8.75317 12.3545 9.49744 12.464C10.2417 12.5735 11.0015 12.4403 11.6641 12.0841L17.2941 17.7141C17.3871 17.8078 17.4977 17.8822 17.6195 17.933C17.7414 17.9838 17.8721 18.0099 18.0041 18.0099C18.1361 18.0099 18.2668 17.9838 18.3887 17.933C18.5105 17.8822 18.6211 17.8078 18.7141 17.7141C18.8078 17.6211 18.8822 17.5105 18.933 17.3887C18.9838 17.2668 19.0099 17.1361 19.0099 17.0041C19.0099 16.8721 18.9838 16.7414 18.933 16.6195C18.8822 16.4977 18.8078 16.3871 18.7141 16.2941L2.71409 0.294092ZM10.0041 10.5041C9.60627 10.5041 9.22474 10.3461 8.94343 10.0648C8.66213 9.78345 8.50409 9.40192 8.50409 9.00409C8.50409 9.00409 8.50409 8.95409 8.50409 8.93409L10.0641 10.4941L10.0041 10.5041Z" fill="#5C3A2C"/>
<path d="M10.224 14.0041C5.92397 14.1041 3.10397 10.4141 2.22397 9.00408C2.85044 8.00478 3.60334 7.09055 4.46397 6.28408L3.00397 4.87408C1.87541 5.93765 0.908502 7.1606 0.133975 8.50408C0.0462063 8.6561 0 8.82855 0 9.00408C0 9.17962 0.0462063 9.35206 0.133975 9.50408C0.763975 10.5941 4.13398 16.0041 10.024 16.0041H10.274C11.3815 15.9708 12.4746 15.7441 13.504 15.3341L11.924 13.7541C11.3684 13.9006 10.7982 13.9844 10.224 14.0041ZM19.874 8.50408C19.234 7.39408 15.704 1.82408 9.73397 2.00408C8.62647 2.03735 7.53333 2.2641 6.50397 2.67408L8.08397 4.25408C8.63954 4.10759 9.20976 4.02373 9.78397 4.00408C14.074 3.89408 16.894 7.59408 17.784 9.00408C17.142 10.0064 16.3722 10.9207 15.494 11.7241L17.004 13.1341C18.1467 12.0733 19.1272 10.8502 19.914 9.50408C19.9957 9.34858 20.0351 9.17427 20.0281 8.99872C20.021 8.82317 19.9679 8.65256 19.874 8.50408Z" fill="#5C3A2C"/>
</svg>
