<svg width="40" height="40" viewBox="0 0 40 40" fill="none" xmlns="http://www.w3.org/2000/svg">
<rect width="40" height="40" rx="15" fill="#EFEEED"/>
<path d="M16 11.5H24C24.9571 11.5 25.6245 11.5006 26.1279 11.5684C26.6168 11.6341 26.8759 11.7548 27.0605 11.9395C27.2452 12.1241 27.3659 12.3832 27.4316 12.8721C27.4994 13.3755 27.5 14.0429 27.5 15V20C27.5 20.9571 27.4994 21.6245 27.4316 22.1279C27.3659 22.6168 27.2452 22.8759 27.0605 23.0605C26.8759 23.2452 26.6168 23.3659 26.1279 23.4316C25.6245 23.4994 24.9571 23.5 24 23.5H14.5C13.7591 23.5 13.0488 23.7766 12.5 24.2686V15C12.5 14.0429 12.5006 13.3755 12.5684 12.8721C12.6341 12.3832 12.7548 12.1241 12.9395 11.9395C13.1241 11.7548 13.3832 11.6341 13.8721 11.5684C14.3755 11.5006 15.0429 11.5 16 11.5ZM17 13.5C16.337 13.5 15.7013 13.7636 15.2324 14.2324C14.7636 14.7013 14.5 15.337 14.5 16C14.5 16.663 14.7636 17.2987 15.2324 17.7676C15.7013 18.2364 16.337 18.5 17 18.5H23C23.663 18.5 24.2987 18.2364 24.7676 17.7676C25.2364 17.2987 25.5 16.663 25.5 16C25.5 15.337 25.2364 14.7013 24.7676 14.2324C24.2987 13.7636 23.663 13.5 23 13.5H17Z" fill="#0360FF"/>
<path d="M16 11.5H24C24.9571 11.5 25.6245 11.5006 26.1279 11.5684C26.6168 11.6341 26.8759 11.7548 27.0605 11.9395C27.2452 12.1241 27.3659 12.3832 27.4316 12.8721C27.4994 13.3755 27.5 14.0429 27.5 15V20C27.5 20.9571 27.4994 21.6245 27.4316 22.1279C27.3659 22.6168 27.2452 22.8759 27.0605 23.0605C26.8759 23.2452 26.6168 23.3659 26.1279 23.4316C25.6245 23.4994 24.9571 23.5 24 23.5H14.5C13.7591 23.5 13.0488 23.7766 12.5 24.2686V15C12.5 14.0429 12.5006 13.3755 12.5684 12.8721C12.6341 12.3832 12.7548 12.1241 12.9395 11.9395C13.1241 11.7548 13.3832 11.6341 13.8721 11.5684C14.3755 11.5006 15.0429 11.5 16 11.5ZM17 13.5C16.337 13.5 15.7013 13.7636 15.2324 14.2324C14.7636 14.7013 14.5 15.337 14.5 16C14.5 16.663 14.7636 17.2987 15.2324 17.7676C15.7013 18.2364 16.337 18.5 17 18.5H23C23.663 18.5 24.2987 18.2364 24.7676 17.7676C25.2364 17.2987 25.5 16.663 25.5 16C25.5 15.337 25.2364 14.7013 24.7676 14.2324C24.2987 13.7636 23.663 13.5 23 13.5H17Z" fill="black" fill-opacity="0.2"/>
<path d="M16 11.5H24C24.9571 11.5 25.6245 11.5006 26.1279 11.5684C26.6168 11.6341 26.8759 11.7548 27.0605 11.9395C27.2452 12.1241 27.3659 12.3832 27.4316 12.8721C27.4994 13.3755 27.5 14.0429 27.5 15V20C27.5 20.9571 27.4994 21.6245 27.4316 22.1279C27.3659 22.6168 27.2452 22.8759 27.0605 23.0605C26.8759 23.2452 26.6168 23.3659 26.1279 23.4316C25.6245 23.4994 24.9571 23.5 24 23.5H14.5C13.7591 23.5 13.0488 23.7766 12.5 24.2686V15C12.5 14.0429 12.5006 13.3755 12.5684 12.8721C12.6341 12.3832 12.7548 12.1241 12.9395 11.9395C13.1241 11.7548 13.3832 11.6341 13.8721 11.5684C14.3755 11.5006 15.0429 11.5 16 11.5ZM17 13.5C16.337 13.5 15.7013 13.7636 15.2324 14.2324C14.7636 14.7013 14.5 15.337 14.5 16C14.5 16.663 14.7636 17.2987 15.2324 17.7676C15.7013 18.2364 16.337 18.5 17 18.5H23C23.663 18.5 24.2987 18.2364 24.7676 17.7676C25.2364 17.2987 25.5 16.663 25.5 16C25.5 15.337 25.2364 14.7013 24.7676 14.2324C24.2987 13.7636 23.663 13.5 23 13.5H17Z" stroke="#0360FF"/>
<path d="M16 11.5H24C24.9571 11.5 25.6245 11.5006 26.1279 11.5684C26.6168 11.6341 26.8759 11.7548 27.0605 11.9395C27.2452 12.1241 27.3659 12.3832 27.4316 12.8721C27.4994 13.3755 27.5 14.0429 27.5 15V20C27.5 20.9571 27.4994 21.6245 27.4316 22.1279C27.3659 22.6168 27.2452 22.8759 27.0605 23.0605C26.8759 23.2452 26.6168 23.3659 26.1279 23.4316C25.6245 23.4994 24.9571 23.5 24 23.5H14.5C13.7591 23.5 13.0488 23.7766 12.5 24.2686V15C12.5 14.0429 12.5006 13.3755 12.5684 12.8721C12.6341 12.3832 12.7548 12.1241 12.9395 11.9395C13.1241 11.7548 13.3832 11.6341 13.8721 11.5684C14.3755 11.5006 15.0429 11.5 16 11.5ZM17 13.5C16.337 13.5 15.7013 13.7636 15.2324 14.2324C14.7636 14.7013 14.5 15.337 14.5 16C14.5 16.663 14.7636 17.2987 15.2324 17.7676C15.7013 18.2364 16.337 18.5 17 18.5H23C23.663 18.5 24.2987 18.2364 24.7676 17.7676C25.2364 17.2987 25.5 16.663 25.5 16C25.5 15.337 25.2364 14.7013 24.7676 14.2324C24.2987 13.7636 23.663 13.5 23 13.5H17Z" stroke="black" stroke-opacity="0.2"/>
<path d="M18.5 28.5V29.5H15V28.5H18.5ZM12.5664 27C12.655 27.3427 12.8313 27.6595 13.0859 27.9141C13.3405 28.1687 13.6573 28.345 14 28.4336V29.4541C13.3901 29.3509 12.8221 29.0643 12.3789 28.6211C11.9357 28.1779 11.6481 27.61 11.5449 27H12.5664ZM12.5 26H11.5449C11.6481 25.39 11.9357 24.8221 12.3789 24.3789C12.4176 24.3402 12.4594 24.3049 12.5 24.2686V26ZM14 24.5654C13.8248 24.6107 13.6567 24.679 13.5 24.7695V23.6748C13.6623 23.6173 13.8292 23.5738 14 23.5449V24.5654ZM23.5 23.5V24.5H15V23.5H23.5ZM27.3672 24.0742C27.0458 24.2638 26.6772 24.367 26.2617 24.4229C25.7847 24.4868 25.2011 24.497 24.5 24.499V23.4961C24.983 23.4946 25.3812 23.4924 25.7168 23.4707L26.1279 23.4316C26.3246 23.4049 26.484 23.368 26.6162 23.3232L27.3672 24.0742ZM12.5 15.5V23.0371C12.2 23.2104 11.9211 23.4227 11.6719 23.6719C11.6124 23.7314 11.5553 23.7927 11.5 23.8555V15.5H12.5ZM28.499 20.5C28.497 21.2008 28.4868 21.7838 28.4229 22.2617C28.367 22.6771 28.2641 23.0456 28.0742 23.3672L27.3232 22.6162C27.354 22.5252 27.3821 22.4218 27.4043 22.3018L27.4316 22.1279C27.4867 21.7175 27.494 21.1968 27.4961 20.5H28.499ZM28.5 15.5V19.5H27.5V15.5H28.5ZM22.5 17.5V18.5H17.5V17.5H22.5ZM15.5879 16.5C15.6618 16.7087 15.7799 16.901 15.9395 17.0605C16.099 17.2201 16.2913 17.3382 16.5 17.4121V18.4482C16.0234 18.3509 15.5816 18.1167 15.2324 17.7676C14.8833 17.4184 14.6491 16.9766 14.5518 16.5H15.5879ZM25.4482 16.5C25.3509 16.9766 25.1167 17.4184 24.7676 17.7676C24.4184 18.1167 23.9766 18.3509 23.5 18.4482V17.4121C23.7087 17.3382 23.901 17.2201 24.0605 17.0605C24.2201 16.901 24.3382 16.7087 24.4121 16.5H25.4482ZM23.5 13.5508C23.9767 13.6481 24.4184 13.8832 24.7676 14.2324C25.1167 14.5816 25.3509 15.0234 25.4482 15.5H24.4121C24.3382 15.2913 24.2201 15.099 24.0605 14.9395C23.9009 14.7798 23.7088 14.6608 23.5 14.5869V13.5508ZM16.5 14.5869C16.2912 14.6608 16.0991 14.7798 15.9395 14.9395C15.7799 15.099 15.6618 15.2913 15.5879 15.5H14.5518C14.6491 15.0234 14.8833 14.5816 15.2324 14.2324C15.5816 13.8832 16.0233 13.6481 16.5 13.5508V14.5869ZM28.0742 11.6318C28.2641 11.9533 28.367 12.3225 28.4229 12.7383C28.4868 13.2153 28.497 13.7989 28.499 14.5H27.4961C27.4946 14.0166 27.4924 13.6179 27.4707 13.2822L27.4316 12.8721L27.4043 12.6982C27.3821 12.5778 27.3542 12.474 27.3232 12.3828L28.0742 11.6318ZM22.5 13.5V14.5H17.5V13.5H22.5ZM12.6758 12.3828C12.6449 12.474 12.6179 12.5779 12.5957 12.6982L12.5684 12.8721C12.5133 13.2825 12.506 13.8032 12.5039 14.5H11.501C11.503 13.7992 11.5132 13.2162 11.5771 12.7383C11.633 12.3228 11.7348 11.9535 11.9248 11.6318L12.6758 12.3828ZM15.5 11.5029C14.803 11.505 14.2818 11.5133 13.8721 11.5684C13.6751 11.5951 13.5152 11.631 13.3828 11.6758L12.6318 10.9248C12.9532 10.7351 13.3226 10.633 13.7383 10.5771C14.2153 10.5132 14.7989 10.502 15.5 10.5V11.5029ZM24.5 10.5C25.2008 10.502 25.7838 10.5132 26.2617 10.5771C26.6769 10.6329 27.0457 10.7351 27.3672 10.9248L26.6162 11.6758C26.484 11.6311 26.3245 11.5951 26.1279 11.5684L25.7168 11.5293C25.3812 11.5076 24.983 11.5044 24.5 11.5029V10.5ZM23.5 10.5V11.5H16.5V10.5H23.5Z" fill="#0360FF"/>
<path d="M18.5 28.5V29.5H15V28.5H18.5ZM12.5664 27C12.655 27.3427 12.8313 27.6595 13.0859 27.9141C13.3405 28.1687 13.6573 28.345 14 28.4336V29.4541C13.3901 29.3509 12.8221 29.0643 12.3789 28.6211C11.9357 28.1779 11.6481 27.61 11.5449 27H12.5664ZM12.5 26H11.5449C11.6481 25.39 11.9357 24.8221 12.3789 24.3789C12.4176 24.3402 12.4594 24.3049 12.5 24.2686V26ZM14 24.5654C13.8248 24.6107 13.6567 24.679 13.5 24.7695V23.6748C13.6623 23.6173 13.8292 23.5738 14 23.5449V24.5654ZM23.5 23.5V24.5H15V23.5H23.5ZM27.3672 24.0742C27.0458 24.2638 26.6772 24.367 26.2617 24.4229C25.7847 24.4868 25.2011 24.497 24.5 24.499V23.4961C24.983 23.4946 25.3812 23.4924 25.7168 23.4707L26.1279 23.4316C26.3246 23.4049 26.484 23.368 26.6162 23.3232L27.3672 24.0742ZM12.5 15.5V23.0371C12.2 23.2104 11.9211 23.4227 11.6719 23.6719C11.6124 23.7314 11.5553 23.7927 11.5 23.8555V15.5H12.5ZM28.499 20.5C28.497 21.2008 28.4868 21.7838 28.4229 22.2617C28.367 22.6771 28.2641 23.0456 28.0742 23.3672L27.3232 22.6162C27.354 22.5252 27.3821 22.4218 27.4043 22.3018L27.4316 22.1279C27.4867 21.7175 27.494 21.1968 27.4961 20.5H28.499ZM28.5 15.5V19.5H27.5V15.5H28.5ZM22.5 17.5V18.5H17.5V17.5H22.5ZM15.5879 16.5C15.6618 16.7087 15.7799 16.901 15.9395 17.0605C16.099 17.2201 16.2913 17.3382 16.5 17.4121V18.4482C16.0234 18.3509 15.5816 18.1167 15.2324 17.7676C14.8833 17.4184 14.6491 16.9766 14.5518 16.5H15.5879ZM25.4482 16.5C25.3509 16.9766 25.1167 17.4184 24.7676 17.7676C24.4184 18.1167 23.9766 18.3509 23.5 18.4482V17.4121C23.7087 17.3382 23.901 17.2201 24.0605 17.0605C24.2201 16.901 24.3382 16.7087 24.4121 16.5H25.4482ZM23.5 13.5508C23.9767 13.6481 24.4184 13.8832 24.7676 14.2324C25.1167 14.5816 25.3509 15.0234 25.4482 15.5H24.4121C24.3382 15.2913 24.2201 15.099 24.0605 14.9395C23.9009 14.7798 23.7088 14.6608 23.5 14.5869V13.5508ZM16.5 14.5869C16.2912 14.6608 16.0991 14.7798 15.9395 14.9395C15.7799 15.099 15.6618 15.2913 15.5879 15.5H14.5518C14.6491 15.0234 14.8833 14.5816 15.2324 14.2324C15.5816 13.8832 16.0233 13.6481 16.5 13.5508V14.5869ZM28.0742 11.6318C28.2641 11.9533 28.367 12.3225 28.4229 12.7383C28.4868 13.2153 28.497 13.7989 28.499 14.5H27.4961C27.4946 14.0166 27.4924 13.6179 27.4707 13.2822L27.4316 12.8721L27.4043 12.6982C27.3821 12.5778 27.3542 12.474 27.3232 12.3828L28.0742 11.6318ZM22.5 13.5V14.5H17.5V13.5H22.5ZM12.6758 12.3828C12.6449 12.474 12.6179 12.5779 12.5957 12.6982L12.5684 12.8721C12.5133 13.2825 12.506 13.8032 12.5039 14.5H11.501C11.503 13.7992 11.5132 13.2162 11.5771 12.7383C11.633 12.3228 11.7348 11.9535 11.9248 11.6318L12.6758 12.3828ZM15.5 11.5029C14.803 11.505 14.2818 11.5133 13.8721 11.5684C13.6751 11.5951 13.5152 11.631 13.3828 11.6758L12.6318 10.9248C12.9532 10.7351 13.3226 10.633 13.7383 10.5771C14.2153 10.5132 14.7989 10.502 15.5 10.5V11.5029ZM24.5 10.5C25.2008 10.502 25.7838 10.5132 26.2617 10.5771C26.6769 10.6329 27.0457 10.7351 27.3672 10.9248L26.6162 11.6758C26.484 11.6311 26.3245 11.5951 26.1279 11.5684L25.7168 11.5293C25.3812 11.5076 24.983 11.5044 24.5 11.5029V10.5ZM23.5 10.5V11.5H16.5V10.5H23.5Z" fill="black" fill-opacity="0.2"/>
<path d="M18.5 28.5V29.5H15V28.5H18.5ZM12.5664 27C12.655 27.3427 12.8313 27.6595 13.0859 27.9141C13.3405 28.1687 13.6573 28.345 14 28.4336V29.4541C13.3901 29.3509 12.8221 29.0643 12.3789 28.6211C11.9357 28.1779 11.6481 27.61 11.5449 27H12.5664ZM12.5 26H11.5449C11.6481 25.39 11.9357 24.8221 12.3789 24.3789C12.4176 24.3402 12.4594 24.3049 12.5 24.2686V26ZM14 24.5654C13.8248 24.6107 13.6567 24.679 13.5 24.7695V23.6748C13.6623 23.6173 13.8292 23.5738 14 23.5449V24.5654ZM23.5 23.5V24.5H15V23.5H23.5ZM27.3672 24.0742C27.0458 24.2638 26.6772 24.367 26.2617 24.4229C25.7847 24.4868 25.2011 24.497 24.5 24.499V23.4961C24.983 23.4946 25.3812 23.4924 25.7168 23.4707L26.1279 23.4316C26.3246 23.4049 26.484 23.368 26.6162 23.3232L27.3672 24.0742ZM12.5 15.5V23.0371C12.2 23.2104 11.9211 23.4227 11.6719 23.6719C11.6124 23.7314 11.5553 23.7927 11.5 23.8555V15.5H12.5ZM28.499 20.5C28.497 21.2008 28.4868 21.7838 28.4229 22.2617C28.367 22.6771 28.2641 23.0456 28.0742 23.3672L27.3232 22.6162C27.354 22.5252 27.3821 22.4218 27.4043 22.3018L27.4316 22.1279C27.4867 21.7175 27.494 21.1968 27.4961 20.5H28.499ZM28.5 15.5V19.5H27.5V15.5H28.5ZM22.5 17.5V18.5H17.5V17.5H22.5ZM15.5879 16.5C15.6618 16.7087 15.7799 16.901 15.9395 17.0605C16.099 17.2201 16.2913 17.3382 16.5 17.4121V18.4482C16.0234 18.3509 15.5816 18.1167 15.2324 17.7676C14.8833 17.4184 14.6491 16.9766 14.5518 16.5H15.5879ZM25.4482 16.5C25.3509 16.9766 25.1167 17.4184 24.7676 17.7676C24.4184 18.1167 23.9766 18.3509 23.5 18.4482V17.4121C23.7087 17.3382 23.901 17.2201 24.0605 17.0605C24.2201 16.901 24.3382 16.7087 24.4121 16.5H25.4482ZM23.5 13.5508C23.9767 13.6481 24.4184 13.8832 24.7676 14.2324C25.1167 14.5816 25.3509 15.0234 25.4482 15.5H24.4121C24.3382 15.2913 24.2201 15.099 24.0605 14.9395C23.9009 14.7798 23.7088 14.6608 23.5 14.5869V13.5508ZM16.5 14.5869C16.2912 14.6608 16.0991 14.7798 15.9395 14.9395C15.7799 15.099 15.6618 15.2913 15.5879 15.5H14.5518C14.6491 15.0234 14.8833 14.5816 15.2324 14.2324C15.5816 13.8832 16.0233 13.6481 16.5 13.5508V14.5869ZM28.0742 11.6318C28.2641 11.9533 28.367 12.3225 28.4229 12.7383C28.4868 13.2153 28.497 13.7989 28.499 14.5H27.4961C27.4946 14.0166 27.4924 13.6179 27.4707 13.2822L27.4316 12.8721L27.4043 12.6982C27.3821 12.5778 27.3542 12.474 27.3232 12.3828L28.0742 11.6318ZM22.5 13.5V14.5H17.5V13.5H22.5ZM12.6758 12.3828C12.6449 12.474 12.6179 12.5779 12.5957 12.6982L12.5684 12.8721C12.5133 13.2825 12.506 13.8032 12.5039 14.5H11.501C11.503 13.7992 11.5132 13.2162 11.5771 12.7383C11.633 12.3228 11.7348 11.9535 11.9248 11.6318L12.6758 12.3828ZM15.5 11.5029C14.803 11.505 14.2818 11.5133 13.8721 11.5684C13.6751 11.5951 13.5152 11.631 13.3828 11.6758L12.6318 10.9248C12.9532 10.7351 13.3226 10.633 13.7383 10.5771C14.2153 10.5132 14.7989 10.502 15.5 10.5V11.5029ZM24.5 10.5C25.2008 10.502 25.7838 10.5132 26.2617 10.5771C26.6769 10.6329 27.0457 10.7351 27.3672 10.9248L26.6162 11.6758C26.484 11.6311 26.3245 11.5951 26.1279 11.5684L25.7168 11.5293C25.3812 11.5076 24.983 11.5044 24.5 11.5029V10.5ZM23.5 10.5V11.5H16.5V10.5H23.5Z" stroke="#0360FF"/>
<path d="M18.5 28.5V29.5H15V28.5H18.5ZM12.5664 27C12.655 27.3427 12.8313 27.6595 13.0859 27.9141C13.3405 28.1687 13.6573 28.345 14 28.4336V29.4541C13.3901 29.3509 12.8221 29.0643 12.3789 28.6211C11.9357 28.1779 11.6481 27.61 11.5449 27H12.5664ZM12.5 26H11.5449C11.6481 25.39 11.9357 24.8221 12.3789 24.3789C12.4176 24.3402 12.4594 24.3049 12.5 24.2686V26ZM14 24.5654C13.8248 24.6107 13.6567 24.679 13.5 24.7695V23.6748C13.6623 23.6173 13.8292 23.5738 14 23.5449V24.5654ZM23.5 23.5V24.5H15V23.5H23.5ZM27.3672 24.0742C27.0458 24.2638 26.6772 24.367 26.2617 24.4229C25.7847 24.4868 25.2011 24.497 24.5 24.499V23.4961C24.983 23.4946 25.3812 23.4924 25.7168 23.4707L26.1279 23.4316C26.3246 23.4049 26.484 23.368 26.6162 23.3232L27.3672 24.0742ZM12.5 15.5V23.0371C12.2 23.2104 11.9211 23.4227 11.6719 23.6719C11.6124 23.7314 11.5553 23.7927 11.5 23.8555V15.5H12.5ZM28.499 20.5C28.497 21.2008 28.4868 21.7838 28.4229 22.2617C28.367 22.6771 28.2641 23.0456 28.0742 23.3672L27.3232 22.6162C27.354 22.5252 27.3821 22.4218 27.4043 22.3018L27.4316 22.1279C27.4867 21.7175 27.494 21.1968 27.4961 20.5H28.499ZM28.5 15.5V19.5H27.5V15.5H28.5ZM22.5 17.5V18.5H17.5V17.5H22.5ZM15.5879 16.5C15.6618 16.7087 15.7799 16.901 15.9395 17.0605C16.099 17.2201 16.2913 17.3382 16.5 17.4121V18.4482C16.0234 18.3509 15.5816 18.1167 15.2324 17.7676C14.8833 17.4184 14.6491 16.9766 14.5518 16.5H15.5879ZM25.4482 16.5C25.3509 16.9766 25.1167 17.4184 24.7676 17.7676C24.4184 18.1167 23.9766 18.3509 23.5 18.4482V17.4121C23.7087 17.3382 23.901 17.2201 24.0605 17.0605C24.2201 16.901 24.3382 16.7087 24.4121 16.5H25.4482ZM23.5 13.5508C23.9767 13.6481 24.4184 13.8832 24.7676 14.2324C25.1167 14.5816 25.3509 15.0234 25.4482 15.5H24.4121C24.3382 15.2913 24.2201 15.099 24.0605 14.9395C23.9009 14.7798 23.7088 14.6608 23.5 14.5869V13.5508ZM16.5 14.5869C16.2912 14.6608 16.0991 14.7798 15.9395 14.9395C15.7799 15.099 15.6618 15.2913 15.5879 15.5H14.5518C14.6491 15.0234 14.8833 14.5816 15.2324 14.2324C15.5816 13.8832 16.0233 13.6481 16.5 13.5508V14.5869ZM28.0742 11.6318C28.2641 11.9533 28.367 12.3225 28.4229 12.7383C28.4868 13.2153 28.497 13.7989 28.499 14.5H27.4961C27.4946 14.0166 27.4924 13.6179 27.4707 13.2822L27.4316 12.8721L27.4043 12.6982C27.3821 12.5778 27.3542 12.474 27.3232 12.3828L28.0742 11.6318ZM22.5 13.5V14.5H17.5V13.5H22.5ZM12.6758 12.3828C12.6449 12.474 12.6179 12.5779 12.5957 12.6982L12.5684 12.8721C12.5133 13.2825 12.506 13.8032 12.5039 14.5H11.501C11.503 13.7992 11.5132 13.2162 11.5771 12.7383C11.633 12.3228 11.7348 11.9535 11.9248 11.6318L12.6758 12.3828ZM15.5 11.5029C14.803 11.505 14.2818 11.5133 13.8721 11.5684C13.6751 11.5951 13.5152 11.631 13.3828 11.6758L12.6318 10.9248C12.9532 10.7351 13.3226 10.633 13.7383 10.5771C14.2153 10.5132 14.7989 10.502 15.5 10.5V11.5029ZM24.5 10.5C25.2008 10.502 25.7838 10.5132 26.2617 10.5771C26.6769 10.6329 27.0457 10.7351 27.3672 10.9248L26.6162 11.6758C26.484 11.6311 26.3245 11.5951 26.1279 11.5684L25.7168 11.5293C25.3812 11.5076 24.983 11.5044 24.5 11.5029V10.5ZM23.5 10.5V11.5H16.5V10.5H23.5Z" stroke="black" stroke-opacity="0.2"/>
<path d="M28 29H18H28Z" fill="#0360FF"/>
<path d="M28 29H18H28Z" fill="black" fill-opacity="0.2"/>
<path d="M28 29H18" stroke="#0360FF" stroke-width="2" stroke-linecap="round"/>
<path d="M28 29H18" stroke="black" stroke-opacity="0.2" stroke-width="2" stroke-linecap="round"/>
</svg>
