<svg width="60" height="60" viewBox="0 0 60 60" fill="none" xmlns="http://www.w3.org/2000/svg">
<rect width="60" height="60" rx="30" fill="#5C3A2C"/>
<path d="M38 24.7356C42.7824 25.8924 46 28.0492 46 30.5212C46 34.2092 38.8368 37.1996 30 37.1996C21.1632 37.1996 14 34.2076 14 30.5212C14 28.0492 17.2176 25.8924 22 24.7372" stroke="#EFEEED" stroke-width="1.5"/>
<path d="M22 25.5666C22.0004 23.56 22.7977 21.6357 24.2166 20.2169C25.6355 18.798 27.5598 18.0007 29.5664 18.0002H30.4336C32.4402 18.0007 34.3645 18.798 35.7834 20.2169C37.2023 21.6357 37.9996 23.56 38 25.5666C38 25.8498 37.9136 26.1266 37.68 26.2882C37.0176 26.749 35.104 27.6002 30 27.6002C24.896 27.6002 22.9824 26.749 22.32 26.2882C22.0864 26.1282 22 25.8498 22 25.5666Z" stroke="#EFEEED" stroke-width="1.5"/>
<path d="M30 37.1997V41.9997M19.6 36.3997L18 39.5997M40.4 36.3997L42 39.5997" stroke="#EFEEED" stroke-width="1.5" stroke-linecap="round"/>
<path d="M29.9996 31.2991C30.607 31.2991 31.1 31.7913 31.1002 32.3987C31.1002 33.0062 30.6071 33.4993 29.9996 33.4993C29.3923 33.4991 28.9 33.0061 28.9 32.3987C28.9002 31.7915 29.3924 31.2993 29.9996 31.2991Z" fill="white" stroke="#EFEEED"/>
<path d="M21.9996 29.7014C22.607 29.7014 23.1 30.1937 23.1002 30.801C23.1002 31.4085 22.6071 31.9016 21.9996 31.9016C21.3923 31.9014 20.9 31.4084 20.9 30.801C20.9002 30.1938 21.3924 29.7016 21.9996 29.7014Z" fill="white" stroke="#EFEEED"/>
<path d="M37.9996 29.7014C38.607 29.7014 39.1 30.1937 39.1002 30.801C39.1002 31.4085 38.6071 31.9016 37.9996 31.9016C37.3923 31.9014 36.9 31.4084 36.9 30.801C36.9002 30.1938 37.3924 29.7016 37.9996 29.7014Z" fill="white" stroke="#EFEEED"/>
</svg>
