<svg width="60" height="60" viewBox="0 0 60 60" fill="none" xmlns="http://www.w3.org/2000/svg">
<rect width="60" height="60" rx="30" fill="#5C3A2C"/>
<path d="M28.3333 40C31.5556 40 34.3056 38.8628 36.5833 36.5883C38.8611 34.3139 40 31.5622 40 28.3333C40 25.1111 38.8611 22.3611 36.5833 20.0833C34.3056 17.8056 31.5556 16.6667 28.3333 16.6667C25.1044 16.6667 22.3528 17.8056 20.0783 20.0833C17.8039 22.3611 16.6667 25.1111 16.6667 28.3333C16.6667 31.5622 17.8039 34.3139 20.0783 36.5883C22.3528 38.8628 25.1044 40 28.3333 40ZM28.3333 34.4867C26.1556 34.4867 24.2244 33.9272 22.54 32.8083C20.8556 31.6894 19.635 30.1978 18.8783 28.3333C19.6339 26.4956 20.8544 25.0106 22.54 23.8783C24.2256 22.7461 26.1567 22.1794 28.3333 22.1783C30.4833 22.1783 32.4006 22.745 34.085 23.8783C35.7694 25.0117 36.9933 26.4967 37.7567 28.3333C36.9933 30.1989 35.7694 31.6911 34.085 32.81C32.4006 33.9289 30.4833 34.4878 28.3333 34.4867ZM28.3333 33.0133C29.9678 33.0133 31.4772 32.5967 32.8617 31.7633C34.2472 30.9322 35.3439 29.7889 36.1517 28.3333C35.3439 26.8844 34.2472 25.7422 32.8617 24.9067C31.4761 24.0711 29.9667 23.6533 28.3333 23.6533C26.6922 23.6533 25.1739 24.0711 23.7783 24.9067C22.3828 25.7422 21.2817 26.8844 20.475 28.3333C21.2828 29.7889 22.3839 30.9328 23.7783 31.765C25.1739 32.5972 26.6922 33.0133 28.3333 33.0133ZM28.3333 30.8333C29.0278 30.8333 29.6183 30.5922 30.105 30.11C30.5906 29.6267 30.8333 29.0344 30.8333 28.3333C30.8333 27.6389 30.5906 27.0489 30.105 26.5633C29.6194 26.0778 29.0289 25.8344 28.3333 25.8333C27.6333 25.8333 27.0417 26.0767 26.5583 26.5633C26.075 27.0489 25.8333 27.6389 25.8333 28.3333C25.8333 29.0333 26.075 29.6256 26.5583 30.11C27.0406 30.5922 27.6322 30.8333 28.3333 30.8333ZM28.3333 41.6667C26.4844 41.6667 24.7522 41.3189 23.1367 40.6233C21.5211 39.9278 20.1089 38.9756 18.9 37.7667C17.6911 36.5578 16.7389 35.1456 16.0433 33.53C15.3478 31.9144 15 30.1822 15 28.3333C15 26.4911 15.3478 24.7617 16.0433 23.145C16.7389 21.5283 17.6911 20.1144 18.9 18.9033C20.1089 17.6922 21.5211 16.7389 23.1367 16.0433C24.7522 15.3478 26.4844 15 28.3333 15C30.1756 15 31.905 15.3478 33.5217 16.0433C35.1383 16.7389 36.5522 17.6922 37.7633 18.9033C38.9744 20.1144 39.9278 21.5289 40.6233 23.1467C41.3189 24.7644 41.6667 26.4933 41.6667 28.3333C41.6667 30.0256 41.37 31.6206 40.7767 33.1183C40.1822 34.6161 39.36 35.9644 38.31 37.1633L45 43.8533L43.8433 45L37.1533 38.32C35.9556 39.37 34.6078 40.19 33.11 40.78C31.6111 41.3711 30.0189 41.6667 28.3333 41.6667Z" fill="white"/>
</svg>
