<svg width="60" height="60" viewBox="0 0 60 60" fill="none" xmlns="http://www.w3.org/2000/svg">
<rect width="60" height="60" rx="30" fill="#5C3A2C"/>
<path d="M21.25 41.25C20.1875 41.25 19.4325 40.7763 18.985 39.8288C18.5375 38.8813 18.6467 38.0008 19.3125 37.1875L26.25 28.75V21.25H25C24.6459 21.25 24.3492 21.13 24.11 20.89C23.8709 20.65 23.7508 20.3533 23.75 20C23.7492 19.6467 23.8692 19.35 24.11 19.11C24.3509 18.87 24.6475 18.75 25 18.75H35C35.3542 18.75 35.6513 18.87 35.8913 19.11C36.1313 19.35 36.2509 19.6467 36.25 20C36.2492 20.3533 36.1292 20.6504 35.89 20.8912C35.6509 21.1321 35.3542 21.2517 35 21.25H33.75V28.75L40.6875 37.1875C41.3542 38 41.4638 38.8804 41.0163 39.8288C40.5688 40.7771 39.8134 41.2508 38.75 41.25H21.25ZM21.25 38.75H38.75L31.25 29.625V21.25H28.75V29.625L21.25 38.75Z" fill="white"/>
</svg>
