<svg width="60" height="60" viewBox="0 0 60 60" fill="none" xmlns="http://www.w3.org/2000/svg">
<rect width="60" height="60" rx="30" fill="#5C3A2C"/>
<path d="M17.4436 22.2445C17.4436 21.9506 17.3268 21.6688 17.1191 21.461C16.9113 21.2533 16.6295 21.1365 16.3356 21.1365C16.0418 21.1365 15.76 21.2533 15.5522 21.461C15.3444 21.6688 15.2277 21.9506 15.2277 22.2445V41.4485C15.2277 42.4678 16.055 43.2951 17.0743 43.2951H42.9259C43.9452 43.2951 44.7724 42.4678 44.7724 41.4485V22.2445C44.7724 21.9506 44.6557 21.6688 44.4479 21.461C44.2401 21.2533 43.9583 21.1365 43.6645 21.1365C43.3706 21.1365 43.0888 21.2533 42.8811 21.461C42.6733 21.6688 42.5566 21.9506 42.5566 22.2445V29.9999H38.8664C39.353 28.8295 39.603 27.5744 39.6021 26.3069C39.6021 24.7942 38.9196 23.441 38.0392 22.3183C37.1543 21.1882 36.0035 20.2044 34.8971 19.4037C33.5311 18.4253 32.0801 17.5715 30.5614 16.8526L30.4831 16.8156L30.461 16.8053L30.455 16.8023H30.4521C30.3095 16.7383 30.1549 16.7053 29.9986 16.7053C29.8423 16.7053 29.6877 16.7383 29.5451 16.8023H29.5421L29.5362 16.8053L29.5141 16.8156L29.4358 16.8526C29.3668 16.8831 29.2713 16.9289 29.1492 16.9899C27.7347 17.6796 26.3807 18.4871 25.1015 19.4037C23.9951 20.2044 22.8443 21.1882 21.9595 22.3168C21.0805 23.441 20.398 24.7942 20.398 26.3069C20.398 27.6157 20.6595 28.8625 21.1337 29.9999H17.4436V22.2445ZM36.398 29.9999H23.6036C22.9553 28.8771 22.6139 27.6034 22.6139 26.3069C22.6139 25.4737 22.9935 24.5933 23.7056 23.6833C24.4146 22.7792 25.3852 21.9342 26.403 21.1986C27.5408 20.3813 28.7439 19.659 30.0001 19.0389C31.2562 19.658 32.4592 20.3794 33.5971 21.1956C34.6149 21.9328 35.587 22.7777 36.2946 23.6818C37.0081 24.5918 37.3862 25.4722 37.3862 26.3054C37.3862 27.6497 37.0258 28.9127 36.398 29.9985M42.5566 41.0777H33.6931V38.1233C33.6931 37.1438 33.3041 36.2044 32.6115 35.5119C31.9189 34.8193 30.9795 34.4302 30.0001 34.4302C29.0206 34.4302 28.0812 34.8193 27.3887 35.5119C26.6961 36.2044 26.307 37.1438 26.307 38.1233V41.0777H17.4436V32.2143H42.5566V41.0777ZM28.5228 38.1233C28.5228 37.7315 28.6785 37.3557 28.9555 37.0787C29.2325 36.8017 29.6083 36.646 30.0001 36.646C30.3918 36.646 30.7676 36.8017 31.0446 37.0787C31.3217 37.3557 31.4773 37.7315 31.4773 38.1233V41.0777H28.5228V38.1233ZM17.8129 18.1821C17.8129 18.5739 17.6572 18.9496 17.3802 19.2266C17.1032 19.5037 16.7274 19.6593 16.3356 19.6593C15.9438 19.6593 15.5681 19.5037 15.2911 19.2266C15.014 18.9496 14.8584 18.5739 14.8584 18.1821C14.8584 17.7903 15.014 17.4145 15.2911 17.1375C15.5681 16.8605 15.9438 16.7048 16.3356 16.7048C16.7274 16.7048 17.1032 16.8605 17.3802 17.1375C17.6572 17.4145 17.8129 17.7903 17.8129 18.1821ZM43.6645 19.6593C44.0563 19.6593 44.432 19.5037 44.7091 19.2266C44.9861 18.9496 45.1417 18.5739 45.1417 18.1821C45.1417 17.7903 44.9861 17.4145 44.7091 17.1375C44.432 16.8605 44.0563 16.7048 43.6645 16.7048C43.2727 16.7048 42.897 16.8605 42.6199 17.1375C42.3429 17.4145 42.1873 17.7903 42.1873 18.1821C42.1873 18.5739 42.3429 18.9496 42.6199 19.2266C42.897 19.5037 43.2727 19.6593 43.6645 19.6593Z" fill="white"/>
</svg>
