<svg width="32" height="32" viewBox="0 0 32 32" fill="none" xmlns="http://www.w3.org/2000/svg">
<g clip-path="url(#clip0_737_1142)">
<path d="M23.8391 3H28.2858L18.571 14.1038L30 29.2132H21.0509L14.0421 20.0492L6.02227 29.2132H1.57258L11.9636 17.3366L1 3H10.1757L16.5113 11.376L23.8391 3ZM22.2784 26.5515H24.7425L8.83697 5.52204H6.19298L22.2784 26.5515Z" fill="white"/>
<path d="M23.8391 3H28.2858L18.571 14.1038L30 29.2132H21.0509L14.0421 20.0492L6.02227 29.2132H1.57258L11.9636 17.3366L1 3H10.1757L16.5113 11.376L23.8391 3ZM22.2784 26.5515H24.7425L8.83697 5.52204H6.19298L22.2784 26.5515Z" fill="black" fill-opacity="0.2"/>
</g>
<defs>
<clipPath id="clip0_737_1142">
<rect width="29" height="26.2132" fill="white" transform="translate(1 3)"/>
</clipPath>
</defs>
</svg>
