<svg width="31" height="31" viewBox="0 0 31 31" fill="none" xmlns="http://www.w3.org/2000/svg">
<path d="M15.4999 21.9446C19.059 21.9446 21.9443 19.0592 21.9443 15.5001C21.9443 11.9409 19.059 9.05566 15.4999 9.05566C11.9407 9.05566 9.05542 11.9409 9.05542 15.5001C9.05542 19.0592 11.9407 21.9446 15.4999 21.9446Z" stroke="white" stroke-width="2" stroke-linecap="round" stroke-linejoin="round"/>
<path d="M15.4999 21.9446C19.059 21.9446 21.9443 19.0592 21.9443 15.5001C21.9443 11.9409 19.059 9.05566 15.4999 9.05566C11.9407 9.05566 9.05542 11.9409 9.05542 15.5001C9.05542 19.0592 11.9407 21.9446 15.4999 21.9446Z" stroke="black" stroke-opacity="0.2" stroke-width="2" stroke-linecap="round" stroke-linejoin="round"/>
<path d="M1 21.9444V9.05556C1 4.6066 4.6066 1 9.05556 1H21.9444C26.3934 1 30 4.6066 30 9.05556V21.9444C30 26.3934 26.3934 30 21.9444 30H9.05556C4.6066 30 1 26.3934 1 21.9444Z" stroke="white" stroke-width="2"/>
<path d="M1 21.9444V9.05556C1 4.6066 4.6066 1 9.05556 1H21.9444C26.3934 1 30 4.6066 30 9.05556V21.9444C30 26.3934 26.3934 30 21.9444 30H9.05556C4.6066 30 1 26.3934 1 21.9444Z" stroke="black" stroke-opacity="0.2" stroke-width="2"/>
<path d="M24.3611 6.65511L24.3772 6.63721" stroke="white" stroke-width="2" stroke-linecap="round" stroke-linejoin="round"/>
<path d="M24.3611 6.65511L24.3772 6.63721" stroke="black" stroke-opacity="0.2" stroke-width="2" stroke-linecap="round" stroke-linejoin="round"/>
</svg>
