<svg width="32" height="32" viewBox="0 0 32 32" fill="none" xmlns="http://www.w3.org/2000/svg">
<path d="M30 9.05556V21.9444C30 26.3934 26.3934 30 21.9444 30H9.05556C4.6066 30 1 26.3934 1 21.9444V9.05556C1 4.6066 4.6066 1 9.05556 1H21.9444C26.3934 1 30 4.6066 30 9.05556Z" stroke="white" stroke-width="2" stroke-linecap="round" stroke-linejoin="round"/>
<path d="M30 9.05556V21.9444C30 26.3934 26.3934 30 21.9444 30H9.05556C4.6066 30 1 26.3934 1 21.9444V9.05556C1 4.6066 4.6066 1 9.05556 1H21.9444C26.3934 1 30 4.6066 30 9.05556Z" stroke="black" stroke-opacity="0.2" stroke-width="2" stroke-linecap="round" stroke-linejoin="round"/>
<path d="M13.8892 29.9999C13.8892 25.1665 13.8892 20.3332 13.8892 15.4999C13.8892 11.9756 14.6947 9.05542 20.3336 9.05542" stroke="white" stroke-width="2" stroke-linecap="round" stroke-linejoin="round"/>
<path d="M13.8892 29.9999C13.8892 25.1665 13.8892 20.3332 13.8892 15.4999C13.8892 11.9756 14.6947 9.05542 20.3336 9.05542" stroke="black" stroke-opacity="0.2" stroke-width="2" stroke-linecap="round" stroke-linejoin="round"/>
<path d="M10.6667 17.1113H13.889H20.3334" stroke="white" stroke-width="2" stroke-linecap="round" stroke-linejoin="round"/>
<path d="M10.6667 17.1113H13.889H20.3334" stroke="black" stroke-opacity="0.2" stroke-width="2" stroke-linecap="round" stroke-linejoin="round"/>
</svg>
