<svg width="38" height="38" viewBox="0 0 38 38" fill="none" xmlns="http://www.w3.org/2000/svg">
<rect width="38" height="38" rx="19" fill="#F1F4F9"/>
<path d="M29 16.1318C29 17.4856 28.4062 18.7859 27.3458 19.7478C24.9049 21.9627 21.7969 24.6459 19.2648 26.7805C18.6844 27.2627 18.5042 26.8714 17.9488 26.3674L10.6538 19.7478C8.44875 17.7469 8.44875 14.5167 10.6538 12.5158C12.8804 10.4953 16.5079 11.049 18.7346 13.0695L18.9998 13.3101L19.2648 13.0697C20.3324 12.1004 21.7864 11 23.3053 11C24.8242 11 26.2781 11.5466 27.3458 12.5158C28.4063 13.4778 29 14.778 29 16.1318Z" stroke="black" stroke-width="1.37" stroke-linejoin="round"/>
</svg>
