<svg width="173" height="60" viewBox="0 0 173 60" fill="none" xmlns="http://www.w3.org/2000/svg">
<rect x="2" y="9.5" width="40" height="40" rx="15" fill="#5C3A2C"/>
<path d="M18 21H26C26.9571 21 27.6245 21.0006 28.1279 21.0684C28.6168 21.1341 28.8759 21.2548 29.0605 21.4395C29.2452 21.6241 29.3659 21.8832 29.4316 22.3721C29.4994 22.8755 29.5 23.5429 29.5 24.5V29.5C29.5 30.4571 29.4994 31.1245 29.4316 31.6279C29.3659 32.1168 29.2452 32.3759 29.0605 32.5605C28.8759 32.7452 28.6168 32.8659 28.1279 32.9316C27.6245 32.9994 26.9571 33 26 33H16.5C15.7591 33 15.0488 33.2766 14.5 33.7686V24.5C14.5 23.5429 14.5006 22.8755 14.5684 22.3721C14.6341 21.8832 14.7548 21.6241 14.9395 21.4395C15.1241 21.2548 15.3832 21.1341 15.8721 21.0684C16.3755 21.0006 17.0429 21 18 21ZM19 23C18.337 23 17.7013 23.2636 17.2324 23.7324C16.7636 24.2013 16.5 24.837 16.5 25.5C16.5 26.163 16.7636 26.7987 17.2324 27.2676C17.7013 27.7364 18.337 28 19 28H25C25.663 28 26.2987 27.7364 26.7676 27.2676C27.2364 26.7987 27.5 26.163 27.5 25.5C27.5 24.837 27.2364 24.2013 26.7676 23.7324C26.2987 23.2636 25.663 23 25 23H19Z" fill="white" stroke="white"/>
<path d="M20.5 38V39H17V38H20.5ZM14.5664 36.5C14.655 36.8427 14.8313 37.1595 15.0859 37.4141C15.3405 37.6687 15.6573 37.845 16 37.9336V38.9541C15.3901 38.8509 14.8221 38.5643 14.3789 38.1211C13.9357 37.6779 13.6481 37.11 13.5449 36.5H14.5664ZM14.5 35.5H13.5449C13.6481 34.89 13.9357 34.3221 14.3789 33.8789C14.4176 33.8402 14.4594 33.8049 14.5 33.7686V35.5ZM16 34.0654C15.8248 34.1107 15.6567 34.179 15.5 34.2695V33.1748C15.6623 33.1173 15.8292 33.0738 16 33.0449V34.0654ZM25.5 33V34H17V33H25.5ZM29.3672 33.5742C29.0458 33.7638 28.6772 33.867 28.2617 33.9229C27.7847 33.9868 27.2011 33.997 26.5 33.999V32.9961C26.983 32.9946 27.3812 32.9924 27.7168 32.9707L28.1279 32.9316C28.3246 32.9049 28.484 32.868 28.6162 32.8232L29.3672 33.5742ZM14.5 25V32.5371C14.2 32.7104 13.9211 32.9227 13.6719 33.1719C13.6124 33.2314 13.5553 33.2927 13.5 33.3555V25H14.5ZM30.499 30C30.497 30.7008 30.4868 31.2838 30.4229 31.7617C30.367 32.1771 30.2641 32.5456 30.0742 32.8672L29.3232 32.1162C29.354 32.0252 29.3821 31.9218 29.4043 31.8018L29.4316 31.6279C29.4867 31.2175 29.494 30.6968 29.4961 30H30.499ZM30.5 25V29H29.5V25H30.5ZM24.5 27V28H19.5V27H24.5ZM17.5879 26C17.6618 26.2087 17.7799 26.401 17.9395 26.5605C18.099 26.7201 18.2913 26.8382 18.5 26.9121V27.9482C18.0234 27.8509 17.5816 27.6167 17.2324 27.2676C16.8833 26.9184 16.6491 26.4766 16.5518 26H17.5879ZM27.4482 26C27.3509 26.4766 27.1167 26.9184 26.7676 27.2676C26.4184 27.6167 25.9766 27.8509 25.5 27.9482V26.9121C25.7087 26.8382 25.901 26.7201 26.0605 26.5605C26.2201 26.401 26.3382 26.2087 26.4121 26H27.4482ZM25.5 23.0508C25.9767 23.1481 26.4184 23.3832 26.7676 23.7324C27.1167 24.0816 27.3509 24.5234 27.4482 25H26.4121C26.3382 24.7913 26.2201 24.599 26.0605 24.4395C25.9009 24.2798 25.7088 24.1608 25.5 24.0869V23.0508ZM18.5 24.0869C18.2912 24.1608 18.0991 24.2798 17.9395 24.4395C17.7799 24.599 17.6618 24.7913 17.5879 25H16.5518C16.6491 24.5234 16.8833 24.0816 17.2324 23.7324C17.5816 23.3832 18.0233 23.1481 18.5 23.0508V24.0869ZM30.0742 21.1318C30.2641 21.4533 30.367 21.8225 30.4229 22.2383C30.4868 22.7153 30.497 23.2989 30.499 24H29.4961C29.4946 23.5166 29.4924 23.1179 29.4707 22.7822L29.4316 22.3721L29.4043 22.1982C29.3821 22.0778 29.3542 21.974 29.3232 21.8828L30.0742 21.1318ZM24.5 23V24H19.5V23H24.5ZM14.6758 21.8828C14.6449 21.974 14.6179 22.0779 14.5957 22.1982L14.5684 22.3721C14.5133 22.7825 14.506 23.3032 14.5039 24H13.501C13.503 23.2992 13.5132 22.7162 13.5771 22.2383C13.633 21.8228 13.7348 21.4535 13.9248 21.1318L14.6758 21.8828ZM17.5 21.0029C16.803 21.005 16.2818 21.0133 15.8721 21.0684C15.6751 21.0951 15.5152 21.131 15.3828 21.1758L14.6318 20.4248C14.9532 20.2351 15.3226 20.133 15.7383 20.0771C16.2153 20.0132 16.7989 20.002 17.5 20V21.0029ZM26.5 20C27.2008 20.002 27.7838 20.0132 28.2617 20.0771C28.6769 20.1329 29.0457 20.2351 29.3672 20.4248L28.6162 21.1758C28.484 21.1311 28.3245 21.0951 28.1279 21.0684L27.7168 21.0293C27.3812 21.0076 26.983 21.0044 26.5 21.0029V20ZM25.5 20V21H18.5V20H25.5Z" fill="white" stroke="white"/>
<path d="M30 38.5H20H30Z" fill="white"/>
<path d="M30 38.5H20" stroke="white" stroke-width="2" stroke-linecap="round"/>
<path d="M67.0977 32.686C67.0977 34.1216 66.8527 35.4318 66.3628 36.6167C65.8729 37.8016 65.2064 38.8213 64.3633 39.6758C63.5202 40.5189 62.529 41.174 61.3896 41.6411C60.2617 42.1082 59.0483 42.3418 57.7495 42.3418C56.4621 42.3418 55.2487 42.1025 54.1094 41.624C52.9814 41.1455 51.9902 40.479 51.1357 39.6245C50.2926 38.77 49.6261 37.756 49.1362 36.5825C48.6463 35.3976 48.4014 34.0988 48.4014 32.686V16.4165H53.084V24.9614C53.3346 24.6424 53.6366 24.3576 53.9897 24.1069C54.3543 23.8563 54.7417 23.6512 55.1519 23.4917C55.5734 23.3322 56.0063 23.2126 56.4507 23.1328C56.895 23.0417 57.328 22.9961 57.7495 22.9961C59.0483 22.9961 60.2617 23.241 61.3896 23.731C62.529 24.2095 63.5202 24.8817 64.3633 25.7476C65.2064 26.6134 65.8729 27.6388 66.3628 28.8237C66.8527 29.9972 67.0977 31.2847 67.0977 32.686ZM62.3979 32.686C62.3979 31.9797 62.2726 31.3245 62.022 30.7207C61.7827 30.1055 61.4523 29.5757 61.0308 29.1313C60.6092 28.687 60.1136 28.3395 59.5439 28.0889C58.9857 27.8382 58.3875 27.7129 57.7495 27.7129C57.1115 27.7129 56.5076 27.8553 55.938 28.1401C55.3797 28.4136 54.8898 28.7839 54.4683 29.251C54.0467 29.7067 53.7163 30.2365 53.4771 30.8403C53.2378 31.4328 53.1182 32.048 53.1182 32.686C53.1182 33.3924 53.2378 34.0475 53.4771 34.6514C53.7163 35.2552 54.0467 35.7793 54.4683 36.2236C54.8898 36.668 55.3797 37.0212 55.938 37.2832C56.5076 37.5339 57.1115 37.6592 57.7495 37.6592C58.3875 37.6592 58.9857 37.5339 59.5439 37.2832C60.1136 37.0212 60.6092 36.668 61.0308 36.2236C61.4523 35.7793 61.7827 35.2552 62.022 34.6514C62.2726 34.0475 62.3979 33.3924 62.3979 32.686ZM87.3833 32.686C87.3833 34.0532 87.1383 35.3293 86.6484 36.5142C86.1585 37.6877 85.492 38.7074 84.6489 39.5732C83.8058 40.4277 82.8146 41.1056 81.6753 41.6069C80.5474 42.0968 79.334 42.3418 78.0352 42.3418C76.7477 42.3418 75.5343 42.0968 74.395 41.6069C73.2671 41.1056 72.2759 40.4277 71.4214 39.5732C70.5783 38.7074 69.9118 37.6877 69.4219 36.5142C68.932 35.3293 68.687 34.0532 68.687 32.686C68.687 31.2961 68.932 30.0086 69.4219 28.8237C69.9118 27.6388 70.5783 26.6191 71.4214 25.7646C72.2759 24.8988 73.2671 24.2209 74.395 23.731C75.5343 23.241 76.7477 22.9961 78.0352 22.9961C79.334 22.9961 80.5474 23.2297 81.6753 23.6968C82.8146 24.1525 83.8058 24.8076 84.6489 25.6621C85.492 26.5052 86.1585 27.5249 86.6484 28.7212C87.1383 29.9061 87.3833 31.2277 87.3833 32.686ZM82.6836 32.686C82.6836 31.9341 82.5583 31.2562 82.3076 30.6523C82.0684 30.0371 81.738 29.513 81.3164 29.0801C80.8949 28.6357 80.3993 28.2996 79.8296 28.0718C79.2713 27.8325 78.6732 27.7129 78.0352 27.7129C77.3971 27.7129 76.7933 27.8325 76.2236 28.0718C75.6654 28.2996 75.1755 28.6357 74.7539 29.0801C74.3438 29.513 74.019 30.0371 73.7798 30.6523C73.5405 31.2562 73.4209 31.9341 73.4209 32.686C73.4209 33.3924 73.5405 34.0475 73.7798 34.6514C74.019 35.2552 74.3438 35.7793 74.7539 36.2236C75.1755 36.668 75.6654 37.0212 76.2236 37.2832C76.7933 37.5339 77.3971 37.6592 78.0352 37.6592C78.6732 37.6592 79.2713 37.5396 79.8296 37.3003C80.3993 37.061 80.8949 36.7249 81.3164 36.292C81.738 35.859 82.0684 35.335 82.3076 34.7197C82.5583 34.1045 82.6836 33.4266 82.6836 32.686ZM107.652 32.686C107.652 34.0532 107.407 35.3293 106.917 36.5142C106.427 37.6877 105.761 38.7074 104.917 39.5732C104.074 40.4277 103.083 41.1056 101.944 41.6069C100.816 42.0968 99.6025 42.3418 98.3037 42.3418C97.0163 42.3418 95.8029 42.0968 94.6636 41.6069C93.5356 41.1056 92.5444 40.4277 91.6899 39.5732C90.8468 38.7074 90.1803 37.6877 89.6904 36.5142C89.2005 35.3293 88.9556 34.0532 88.9556 32.686C88.9556 31.2961 89.2005 30.0086 89.6904 28.8237C90.1803 27.6388 90.8468 26.6191 91.6899 25.7646C92.5444 24.8988 93.5356 24.2209 94.6636 23.731C95.8029 23.241 97.0163 22.9961 98.3037 22.9961C99.6025 22.9961 100.816 23.2297 101.944 23.6968C103.083 24.1525 104.074 24.8076 104.917 25.6621C105.761 26.5052 106.427 27.5249 106.917 28.7212C107.407 29.9061 107.652 31.2277 107.652 32.686ZM102.952 32.686C102.952 31.9341 102.827 31.2562 102.576 30.6523C102.337 30.0371 102.007 29.513 101.585 29.0801C101.163 28.6357 100.668 28.2996 100.098 28.0718C99.5399 27.8325 98.9417 27.7129 98.3037 27.7129C97.6657 27.7129 97.0618 27.8325 96.4922 28.0718C95.9339 28.2996 95.444 28.6357 95.0225 29.0801C94.6123 29.513 94.2876 30.0371 94.0483 30.6523C93.8091 31.2562 93.6895 31.9341 93.6895 32.686C93.6895 33.3924 93.8091 34.0475 94.0483 34.6514C94.2876 35.2552 94.6123 35.7793 95.0225 36.2236C95.444 36.668 95.9339 37.0212 96.4922 37.2832C97.0618 37.5339 97.6657 37.6592 98.3037 37.6592C98.9417 37.6592 99.5399 37.5396 100.098 37.3003C100.668 37.061 101.163 36.7249 101.585 36.292C102.007 35.859 102.337 35.335 102.576 34.7197C102.827 34.1045 102.952 33.4266 102.952 32.686ZM114.932 42H110.232V16.4165H114.932V32.5493L121.888 23.731H127.254L121.187 31.353L127.254 42H121.888L118.179 35.3521L114.932 39.6587V42Z" fill="#5C3A2C"/>
</svg>
