<svg width="131" height="60" viewBox="0 0 131 60" fill="none" xmlns="http://www.w3.org/2000/svg">
<rect x="2" y="9.5" width="40" height="40" rx="15" fill="#5C3A2C"/>
<path d="M18 21H26C26.9571 21 27.6245 21.0006 28.1279 21.0684C28.6168 21.1341 28.8759 21.2548 29.0605 21.4395C29.2452 21.6241 29.3659 21.8832 29.4316 22.3721C29.4994 22.8755 29.5 23.5429 29.5 24.5V29.5C29.5 30.4571 29.4994 31.1245 29.4316 31.6279C29.3659 32.1168 29.2452 32.3759 29.0605 32.5605C28.8759 32.7452 28.6168 32.8659 28.1279 32.9316C27.6245 32.9994 26.9571 33 26 33H16.5C15.7591 33 15.0488 33.2766 14.5 33.7686V24.5C14.5 23.5429 14.5006 22.8755 14.5684 22.3721C14.6341 21.8832 14.7548 21.6241 14.9395 21.4395C15.1241 21.2548 15.3832 21.1341 15.8721 21.0684C16.3755 21.0006 17.0429 21 18 21ZM19 23C18.337 23 17.7013 23.2636 17.2324 23.7324C16.7636 24.2013 16.5 24.837 16.5 25.5C16.5 26.163 16.7636 26.7987 17.2324 27.2676C17.7013 27.7364 18.337 28 19 28H25C25.663 28 26.2987 27.7364 26.7676 27.2676C27.2364 26.7987 27.5 26.163 27.5 25.5C27.5 24.837 27.2364 24.2013 26.7676 23.7324C26.2987 23.2636 25.663 23 25 23H19Z" fill="white" stroke="white"/>
<path d="M20.5 38V39H17V38H20.5ZM14.5664 36.5C14.655 36.8427 14.8313 37.1595 15.0859 37.4141C15.3405 37.6687 15.6573 37.845 16 37.9336V38.9541C15.3901 38.8509 14.8221 38.5643 14.3789 38.1211C13.9357 37.6779 13.6481 37.11 13.5449 36.5H14.5664ZM14.5 35.5H13.5449C13.6481 34.89 13.9357 34.3221 14.3789 33.8789C14.4176 33.8402 14.4594 33.8049 14.5 33.7686V35.5ZM16 34.0654C15.8248 34.1107 15.6567 34.179 15.5 34.2695V33.1748C15.6623 33.1173 15.8292 33.0738 16 33.0449V34.0654ZM25.5 33V34H17V33H25.5ZM29.3672 33.5742C29.0458 33.7638 28.6772 33.867 28.2617 33.9229C27.7847 33.9868 27.2011 33.997 26.5 33.999V32.9961C26.983 32.9946 27.3812 32.9924 27.7168 32.9707L28.1279 32.9316C28.3246 32.9049 28.484 32.868 28.6162 32.8232L29.3672 33.5742ZM14.5 25V32.5371C14.2 32.7104 13.9211 32.9227 13.6719 33.1719C13.6124 33.2314 13.5553 33.2927 13.5 33.3555V25H14.5ZM30.499 30C30.497 30.7008 30.4868 31.2838 30.4229 31.7617C30.367 32.1771 30.2641 32.5456 30.0742 32.8672L29.3232 32.1162C29.354 32.0252 29.3821 31.9218 29.4043 31.8018L29.4316 31.6279C29.4867 31.2175 29.494 30.6968 29.4961 30H30.499ZM30.5 25V29H29.5V25H30.5ZM24.5 27V28H19.5V27H24.5ZM17.5879 26C17.6618 26.2087 17.7799 26.401 17.9395 26.5605C18.099 26.7201 18.2913 26.8382 18.5 26.9121V27.9482C18.0234 27.8509 17.5816 27.6167 17.2324 27.2676C16.8833 26.9184 16.6491 26.4766 16.5518 26H17.5879ZM27.4482 26C27.3509 26.4766 27.1167 26.9184 26.7676 27.2676C26.4184 27.6167 25.9766 27.8509 25.5 27.9482V26.9121C25.7087 26.8382 25.901 26.7201 26.0605 26.5605C26.2201 26.401 26.3382 26.2087 26.4121 26H27.4482ZM25.5 23.0508C25.9767 23.1481 26.4184 23.3832 26.7676 23.7324C27.1167 24.0816 27.3509 24.5234 27.4482 25H26.4121C26.3382 24.7913 26.2201 24.599 26.0605 24.4395C25.9009 24.2798 25.7088 24.1608 25.5 24.0869V23.0508ZM18.5 24.0869C18.2912 24.1608 18.0991 24.2798 17.9395 24.4395C17.7799 24.599 17.6618 24.7913 17.5879 25H16.5518C16.6491 24.5234 16.8833 24.0816 17.2324 23.7324C17.5816 23.3832 18.0233 23.1481 18.5 23.0508V24.0869ZM30.0742 21.1318C30.2641 21.4533 30.367 21.8225 30.4229 22.2383C30.4868 22.7153 30.497 23.2989 30.499 24H29.4961C29.4946 23.5166 29.4924 23.1179 29.4707 22.7822L29.4316 22.3721L29.4043 22.1982C29.3821 22.0778 29.3542 21.974 29.3232 21.8828L30.0742 21.1318ZM24.5 23V24H19.5V23H24.5ZM14.6758 21.8828C14.6449 21.974 14.6179 22.0779 14.5957 22.1982L14.5684 22.3721C14.5133 22.7825 14.506 23.3032 14.5039 24H13.501C13.503 23.2992 13.5132 22.7162 13.5771 22.2383C13.633 21.8228 13.7348 21.4535 13.9248 21.1318L14.6758 21.8828ZM17.5 21.0029C16.803 21.005 16.2818 21.0133 15.8721 21.0684C15.6751 21.0951 15.5152 21.131 15.3828 21.1758L14.6318 20.4248C14.9532 20.2351 15.3226 20.133 15.7383 20.0771C16.2153 20.0132 16.7989 20.002 17.5 20V21.0029ZM26.5 20C27.2008 20.002 27.7838 20.0132 28.2617 20.0771C28.6769 20.1329 29.0457 20.2351 29.3672 20.4248L28.6162 21.1758C28.484 21.1311 28.3245 21.0951 28.1279 21.0684L27.7168 21.0293C27.3812 21.0076 26.983 21.0044 26.5 21.0029V20ZM25.5 20V21H18.5V20H25.5Z" fill="white" stroke="white"/>
<path d="M30 38.5H20H30Z" fill="white"/>
<path d="M30 38.5H20" stroke="white" stroke-width="2" stroke-linecap="round"/>
<path d="M70.0977 32.686C70.0977 34.1216 69.8527 35.4318 69.3628 36.6167C68.8729 37.8016 68.2064 38.8213 67.3633 39.6758C66.5202 40.5189 65.529 41.174 64.3896 41.6411C63.2617 42.1082 62.0483 42.3418 60.7495 42.3418C59.4621 42.3418 58.2487 42.1025 57.1094 41.624C55.9814 41.1455 54.9902 40.479 54.1357 39.6245C53.2926 38.77 52.6261 37.756 52.1362 36.5825C51.6463 35.3976 51.4014 34.0988 51.4014 32.686V16.4165H56.084V24.9614C56.3346 24.6424 56.6366 24.3576 56.9897 24.1069C57.3543 23.8563 57.7417 23.6512 58.1519 23.4917C58.5734 23.3322 59.0063 23.2126 59.4507 23.1328C59.895 23.0417 60.328 22.9961 60.7495 22.9961C62.0483 22.9961 63.2617 23.241 64.3896 23.731C65.529 24.2095 66.5202 24.8817 67.3633 25.7476C68.2064 26.6134 68.8729 27.6388 69.3628 28.8237C69.8527 29.9972 70.0977 31.2847 70.0977 32.686ZM65.3979 32.686C65.3979 31.9797 65.2726 31.3245 65.022 30.7207C64.7827 30.1055 64.4523 29.5757 64.0308 29.1313C63.6092 28.687 63.1136 28.3395 62.5439 28.0889C61.9857 27.8382 61.3875 27.7129 60.7495 27.7129C60.1115 27.7129 59.5076 27.8553 58.938 28.1401C58.3797 28.4136 57.8898 28.7839 57.4683 29.251C57.0467 29.7067 56.7163 30.2365 56.4771 30.8403C56.2378 31.4328 56.1182 32.048 56.1182 32.686C56.1182 33.3924 56.2378 34.0475 56.4771 34.6514C56.7163 35.2552 57.0467 35.7793 57.4683 36.2236C57.8898 36.668 58.3797 37.0212 58.938 37.2832C59.5076 37.5339 60.1115 37.6592 60.7495 37.6592C61.3875 37.6592 61.9857 37.5339 62.5439 37.2832C63.1136 37.0212 63.6092 36.668 64.0308 36.2236C64.4523 35.7793 64.7827 35.2552 65.022 34.6514C65.2726 34.0475 65.3979 33.3924 65.3979 32.686ZM90.3833 32.686C90.3833 34.0532 90.1383 35.3293 89.6484 36.5142C89.1585 37.6877 88.492 38.7074 87.6489 39.5732C86.8058 40.4277 85.8146 41.1056 84.6753 41.6069C83.5474 42.0968 82.334 42.3418 81.0352 42.3418C79.7477 42.3418 78.5343 42.0968 77.395 41.6069C76.2671 41.1056 75.2759 40.4277 74.4214 39.5732C73.5783 38.7074 72.9118 37.6877 72.4219 36.5142C71.932 35.3293 71.687 34.0532 71.687 32.686C71.687 31.2961 71.932 30.0086 72.4219 28.8237C72.9118 27.6388 73.5783 26.6191 74.4214 25.7646C75.2759 24.8988 76.2671 24.2209 77.395 23.731C78.5343 23.241 79.7477 22.9961 81.0352 22.9961C82.334 22.9961 83.5474 23.2297 84.6753 23.6968C85.8146 24.1525 86.8058 24.8076 87.6489 25.6621C88.492 26.5052 89.1585 27.5249 89.6484 28.7212C90.1383 29.9061 90.3833 31.2277 90.3833 32.686ZM85.6836 32.686C85.6836 31.9341 85.5583 31.2562 85.3076 30.6523C85.0684 30.0371 84.738 29.513 84.3164 29.0801C83.8949 28.6357 83.3993 28.2996 82.8296 28.0718C82.2713 27.8325 81.6732 27.7129 81.0352 27.7129C80.3971 27.7129 79.7933 27.8325 79.2236 28.0718C78.6654 28.2996 78.1755 28.6357 77.7539 29.0801C77.3438 29.513 77.019 30.0371 76.7798 30.6523C76.5405 31.2562 76.4209 31.9341 76.4209 32.686C76.4209 33.3924 76.5405 34.0475 76.7798 34.6514C77.019 35.2552 77.3438 35.7793 77.7539 36.2236C78.1755 36.668 78.6654 37.0212 79.2236 37.2832C79.7933 37.5339 80.3971 37.6592 81.0352 37.6592C81.6732 37.6592 82.2713 37.5396 82.8296 37.3003C83.3993 37.061 83.8949 36.7249 84.3164 36.292C84.738 35.859 85.0684 35.335 85.3076 34.7197C85.5583 34.1045 85.6836 33.4266 85.6836 32.686ZM110.652 32.686C110.652 34.0532 110.407 35.3293 109.917 36.5142C109.427 37.6877 108.761 38.7074 107.917 39.5732C107.074 40.4277 106.083 41.1056 104.944 41.6069C103.816 42.0968 102.603 42.3418 101.304 42.3418C100.016 42.3418 98.8029 42.0968 97.6636 41.6069C96.5356 41.1056 95.5444 40.4277 94.6899 39.5732C93.8468 38.7074 93.1803 37.6877 92.6904 36.5142C92.2005 35.3293 91.9556 34.0532 91.9556 32.686C91.9556 31.2961 92.2005 30.0086 92.6904 28.8237C93.1803 27.6388 93.8468 26.6191 94.6899 25.7646C95.5444 24.8988 96.5356 24.2209 97.6636 23.731C98.8029 23.241 100.016 22.9961 101.304 22.9961C102.603 22.9961 103.816 23.2297 104.944 23.6968C106.083 24.1525 107.074 24.8076 107.917 25.6621C108.761 26.5052 109.427 27.5249 109.917 28.7212C110.407 29.9061 110.652 31.2277 110.652 32.686ZM105.952 32.686C105.952 31.9341 105.827 31.2562 105.576 30.6523C105.337 30.0371 105.007 29.513 104.585 29.0801C104.163 28.6357 103.668 28.2996 103.098 28.0718C102.54 27.8325 101.942 27.7129 101.304 27.7129C100.666 27.7129 100.062 27.8325 99.4922 28.0718C98.9339 28.2996 98.444 28.6357 98.0225 29.0801C97.6123 29.513 97.2876 30.0371 97.0483 30.6523C96.8091 31.2562 96.6895 31.9341 96.6895 32.686C96.6895 33.3924 96.8091 34.0475 97.0483 34.6514C97.2876 35.2552 97.6123 35.7793 98.0225 36.2236C98.444 36.668 98.9339 37.0212 99.4922 37.2832C100.062 37.5339 100.666 37.6592 101.304 37.6592C101.942 37.6592 102.54 37.5396 103.098 37.3003C103.668 37.061 104.163 36.7249 104.585 36.292C105.007 35.859 105.337 35.335 105.576 34.7197C105.827 34.1045 105.952 33.4266 105.952 32.686ZM117.932 42H113.232V16.4165H117.932V32.5493L124.888 23.731H130.254L124.187 31.353L130.254 42H124.888L121.179 35.3521L117.932 39.6587V42Z" fill="#EFEEED"/>
</svg>
