<svg width="16" height="16" viewBox="0 0 16 16" fill="none" xmlns="http://www.w3.org/2000/svg">
<path d="M14.6287 6.6474H9.53378V1.36822C9.53378 0.612261 8.92152 0 8.16556 0C7.40961 0 6.79735 0.612261 6.79735 1.36822V6.6474H1.36197C0.612261 6.6474 0 7.25967 0 8.01562C0 8.77157 0.612261 9.38384 1.36822 9.38384H6.80359V14.6318C6.80359 15.3877 7.41585 16 8.17181 16C8.92776 16 9.54002 15.3877 9.54002 14.6318V9.38384H14.6349C15.3909 9.38384 16.0031 8.77157 16.0031 8.01562C15.9938 7.25967 15.3846 6.6474 14.6287 6.6474Z" fill="#024DCC"/>
</svg>
