<svg width="230" height="230" viewBox="0 0 230 230" fill="none" xmlns="http://www.w3.org/2000/svg">
<path fill-rule="evenodd" clip-rule="evenodd" d="M155.806 69.2036C157.357 70.064 158.723 71.2215 159.826 72.61C160.929 73.9984 161.748 75.5906 162.236 77.2956C162.723 79.0006 162.87 80.785 162.668 82.5468C162.466 84.3086 161.919 86.0133 161.058 87.5636L123.555 155.064C122.693 156.613 121.535 157.978 120.146 159.079C118.757 160.181 117.164 160.999 115.459 161.485C112.016 162.467 108.324 162.042 105.195 160.302C103.645 159.44 102.281 158.282 101.179 156.893C100.077 155.504 99.2596 153.911 98.7732 152.206C97.7908 148.763 98.2166 145.071 99.9566 141.942L137.446 74.4416C138.308 72.8921 139.466 71.5274 140.855 70.4256C142.244 69.3238 143.836 68.5063 145.541 68.0199C147.246 67.5335 149.03 67.3877 150.791 67.5908C152.553 67.7939 154.257 68.3419 155.806 69.2036Z" fill="#45963C"/>
<path fill-rule="evenodd" clip-rule="evenodd" d="M63.7226 110.068C65.9595 107.275 69.2138 105.484 72.7705 105.089C76.3271 104.694 79.895 105.728 82.6901 107.962L120.193 137.959C121.578 139.067 122.731 140.437 123.586 141.991C124.441 143.544 124.982 145.251 125.177 147.013C125.373 148.776 125.219 150.56 124.725 152.263C124.232 153.966 123.407 155.556 122.299 156.94C121.191 158.325 119.821 159.477 118.268 160.333C116.714 161.188 115.007 161.729 113.245 161.924C111.482 162.12 109.698 161.966 107.995 161.472C106.292 160.979 104.703 160.154 103.318 159.046L65.8151 129.049C64.4301 127.941 63.2769 126.572 62.4214 125.018C61.566 123.465 61.025 121.758 60.8294 119.995C60.6338 118.232 60.7875 116.448 61.2816 114.745C61.7757 113.042 62.6141 111.452 63.7226 110.068Z" fill="#45963C"/>
<path fill-rule="evenodd" clip-rule="evenodd" d="M121.098 29.5946C119.429 27.9376 117.172 27.0077 114.82 27.0077C112.468 27.0077 110.212 27.9376 108.543 29.5946C96.2981 41.8256 76.6961 49.3586 59.4566 48.4946C58.2129 48.4206 56.9677 48.6122 55.8039 49.0568C54.64 49.5014 53.5842 50.1888 52.7066 51.0731C51.8576 51.9153 51.1898 52.9222 50.7441 54.0319C50.2983 55.1416 50.0841 56.3306 50.1146 57.5261C50.3036 67.2461 47.8601 76.9526 44.6471 84.9311C41.4341 92.9231 36.4661 101.604 29.5946 108.489C27.9376 110.158 27.0077 112.414 27.0077 114.766C27.0077 117.118 27.9376 119.375 29.5946 121.044C41.6501 133.113 49.7636 152.107 50.1146 169.185C50.1509 171.475 51.0812 173.66 52.7066 175.273C54.2564 176.838 56.3382 177.764 58.5386 177.865C68.0561 178.338 77.5196 181.146 85.4441 184.656C93.3821 188.179 101.806 193.309 108.529 200.046C110.198 201.703 112.455 202.633 114.807 202.633C117.159 202.633 119.415 201.703 121.084 200.046C127.821 193.309 136.245 188.179 144.169 184.656C152.107 181.146 161.584 178.338 171.075 177.865C173.275 177.764 175.357 176.838 176.907 175.273C178.537 173.662 179.472 171.477 179.512 169.185C179.863 152.107 187.977 133.113 200.032 121.044C201.689 119.375 202.619 117.118 202.619 114.766C202.619 112.414 201.689 110.158 200.032 108.489C193.147 101.604 188.193 92.9231 184.98 84.9311C181.767 76.9526 179.31 67.2461 179.512 57.5261C179.541 56.3297 179.324 55.14 178.876 54.0303C178.428 52.9205 177.758 51.9142 176.907 51.0731C176.032 50.1881 174.979 49.4993 173.817 49.0524C172.656 48.6055 171.413 48.4108 170.17 48.4811C152.917 49.3586 133.315 41.8256 121.098 29.5946ZM23.1281 58.0526C23.3306 68.2991 17.7551 82.1501 10.5056 89.3861C3.77863 96.1195 0 105.248 0 114.766C0 124.284 3.77863 133.413 10.5056 140.146C17.6606 147.274 22.9256 159.64 23.1281 169.738C23.3171 178.675 26.8136 187.558 33.6311 194.362C39.9209 200.665 48.3352 204.395 57.2291 204.825C67.9076 205.365 81.8936 211.575 89.4536 219.135C96.1865 225.857 105.312 229.633 114.827 229.633C124.341 229.633 133.467 225.857 140.2 219.135C147.76 211.575 161.746 205.365 172.425 204.825C181.319 204.395 189.733 200.665 196.023 194.362C202.573 187.821 206.333 178.994 206.512 169.738C206.728 159.64 211.993 147.274 219.135 140.133C225.857 133.4 229.633 124.274 229.633 114.759C229.633 105.245 225.857 96.119 219.135 89.3861C211.899 82.1501 206.31 68.2991 206.526 58.0661C206.627 53.2347 205.749 48.4327 203.944 43.95C202.139 39.4673 199.444 35.3968 196.023 31.9841C192.477 28.4287 188.222 25.6597 183.535 23.8571C178.848 22.0545 173.835 21.2588 168.82 21.5216C159.181 22.0076 147.018 17.3366 140.2 10.5056C133.467 3.77863 124.338 0 114.82 0C105.302 0 96.1735 3.77863 89.4401 10.5056C82.6361 17.3231 70.4591 22.0076 60.8201 21.5216C55.8078 21.2607 50.7966 22.0574 46.1124 23.8599C41.4281 25.6625 37.1756 28.4305 33.6311 31.9841C30.2113 35.3952 27.5176 39.4635 25.7125 43.9438C23.9074 48.424 23.0283 53.2234 23.1281 58.0526Z" fill="#45963C"/>
</svg>
